<svg width="392" height="92" viewBox="0 0 392 92" fill="none" xmlns="http://www.w3.org/2000/svg">
<circle cx="389.075" cy="2.92587" r="2.92538" transform="rotate(90 389.075 2.92587)" fill="url(#paint0_linear_2276_20104)"/>
<circle cx="389.075" cy="45.8311" r="2.92538" transform="rotate(90 389.075 45.8311)" fill="url(#paint1_linear_2276_20104)"/>
<circle cx="389.075" cy="88.7364" r="2.92538" transform="rotate(90 389.075 88.7364)" fill="url(#paint2_linear_2276_20104)"/>
<circle cx="346.169" cy="2.92538" r="2.92538" transform="rotate(90 346.169 2.92538)" fill="url(#paint3_linear_2276_20104)"/>
<circle cx="346.169" cy="45.8311" r="2.92538" transform="rotate(90 346.169 45.8311)" fill="url(#paint4_linear_2276_20104)"/>
<circle cx="346.169" cy="88.7364" r="2.92538" transform="rotate(90 346.169 88.7364)" fill="url(#paint5_linear_2276_20104)"/>
<circle cx="303.264" cy="2.92538" r="2.92538" transform="rotate(90 303.264 2.92538)" fill="url(#paint6_linear_2276_20104)"/>
<circle cx="303.264" cy="45.8311" r="2.92538" transform="rotate(90 303.264 45.8311)" fill="url(#paint7_linear_2276_20104)"/>
<circle cx="303.264" cy="88.7364" r="2.92538" transform="rotate(90 303.264 88.7364)" fill="url(#paint8_linear_2276_20104)"/>
<circle cx="260.358" cy="2.92538" r="2.92538" transform="rotate(90 260.358 2.92538)" fill="url(#paint9_linear_2276_20104)"/>
<circle cx="260.358" cy="45.8311" r="2.92538" transform="rotate(90 260.358 45.8311)" fill="url(#paint10_linear_2276_20104)"/>
<circle cx="260.358" cy="88.7364" r="2.92538" transform="rotate(90 260.358 88.7364)" fill="url(#paint11_linear_2276_20104)"/>
<circle cx="217.452" cy="2.92538" r="2.92538" transform="rotate(90 217.452 2.92538)" fill="url(#paint12_linear_2276_20104)"/>
<circle cx="217.452" cy="45.8311" r="2.92538" transform="rotate(90 217.452 45.8311)" fill="url(#paint13_linear_2276_20104)"/>
<circle cx="217.452" cy="88.7364" r="2.92538" transform="rotate(90 217.452 88.7364)" fill="url(#paint14_linear_2276_20104)"/>
<circle cx="174.547" cy="2.92538" r="2.92538" transform="rotate(90 174.547 2.92538)" fill="url(#paint15_linear_2276_20104)"/>
<circle cx="174.547" cy="45.8311" r="2.92538" transform="rotate(90 174.547 45.8311)" fill="url(#paint16_linear_2276_20104)"/>
<circle cx="174.547" cy="88.7364" r="2.92538" transform="rotate(90 174.547 88.7364)" fill="url(#paint17_linear_2276_20104)"/>
<circle cx="131.641" cy="2.92538" r="2.92538" transform="rotate(90 131.641 2.92538)" fill="url(#paint18_linear_2276_20104)"/>
<circle cx="131.641" cy="45.8311" r="2.92538" transform="rotate(90 131.641 45.8311)" fill="url(#paint19_linear_2276_20104)"/>
<circle cx="131.641" cy="88.7364" r="2.92538" transform="rotate(90 131.641 88.7364)" fill="url(#paint20_linear_2276_20104)"/>
<circle cx="88.7361" cy="45.8311" r="2.92538" transform="rotate(90 88.7361 45.8311)" fill="url(#paint21_linear_2276_20104)"/>
<circle cx="88.7361" cy="88.7364" r="2.92538" transform="rotate(90 88.7361 88.7364)" fill="url(#paint22_linear_2276_20104)"/>
<circle cx="45.83" cy="2.92538" r="2.92538" transform="rotate(90 45.83 2.92538)" fill="url(#paint23_linear_2276_20104)"/>
<circle cx="45.83" cy="45.8311" r="2.92538" transform="rotate(90 45.83 45.8311)" fill="url(#paint24_linear_2276_20104)"/>
<circle cx="45.83" cy="88.7364" r="2.92538" transform="rotate(90 45.83 88.7364)" fill="url(#paint25_linear_2276_20104)"/>
<circle cx="2.92509" cy="2.92538" r="2.92538" transform="rotate(90 2.92509 2.92538)" fill="url(#paint26_linear_2276_20104)"/>
<circle cx="2.92509" cy="45.8311" r="2.92538" transform="rotate(90 2.92509 45.8311)" fill="url(#paint27_linear_2276_20104)"/>
<circle cx="2.92509" cy="88.7364" r="2.92538" transform="rotate(90 2.92509 88.7364)" fill="url(#paint28_linear_2276_20104)"/>
<defs>
<linearGradient id="paint0_linear_2276_20104" x1="389.935" y1="-3.84321" x2="389.935" y2="9.88414" gradientUnits="userSpaceOnUse">
<stop stop-color="#F33726"/>
<stop offset="1" stop-color="#FD9B41"/>
</linearGradient>
<linearGradient id="paint1_linear_2276_20104" x1="389.935" y1="39.0621" x2="389.935" y2="52.7894" gradientUnits="userSpaceOnUse">
<stop stop-color="#F33726"/>
<stop offset="1" stop-color="#FD9B41"/>
</linearGradient>
<linearGradient id="paint2_linear_2276_20104" x1="389.935" y1="81.9673" x2="389.935" y2="95.6947" gradientUnits="userSpaceOnUse">
<stop stop-color="#F33726"/>
<stop offset="1" stop-color="#FD9B41"/>
</linearGradient>
<linearGradient id="paint3_linear_2276_20104" x1="347.029" y1="-3.8437" x2="347.029" y2="9.88365" gradientUnits="userSpaceOnUse">
<stop stop-color="#F33726"/>
<stop offset="1" stop-color="#FD9B41"/>
</linearGradient>
<linearGradient id="paint4_linear_2276_20104" x1="347.029" y1="39.0621" x2="347.029" y2="52.7894" gradientUnits="userSpaceOnUse">
<stop stop-color="#F33726"/>
<stop offset="1" stop-color="#FD9B41"/>
</linearGradient>
<linearGradient id="paint5_linear_2276_20104" x1="347.029" y1="81.9673" x2="347.029" y2="95.6947" gradientUnits="userSpaceOnUse">
<stop stop-color="#F33726"/>
<stop offset="1" stop-color="#FD9B41"/>
</linearGradient>
<linearGradient id="paint6_linear_2276_20104" x1="304.124" y1="-3.8437" x2="304.124" y2="9.88365" gradientUnits="userSpaceOnUse">
<stop stop-color="#F33726"/>
<stop offset="1" stop-color="#FD9B41"/>
</linearGradient>
<linearGradient id="paint7_linear_2276_20104" x1="304.124" y1="39.0621" x2="304.124" y2="52.7894" gradientUnits="userSpaceOnUse">
<stop stop-color="#F33726"/>
<stop offset="1" stop-color="#FD9B41"/>
</linearGradient>
<linearGradient id="paint8_linear_2276_20104" x1="304.124" y1="81.9673" x2="304.124" y2="95.6947" gradientUnits="userSpaceOnUse">
<stop stop-color="#F33726"/>
<stop offset="1" stop-color="#FD9B41"/>
</linearGradient>
<linearGradient id="paint9_linear_2276_20104" x1="261.218" y1="-3.8437" x2="261.218" y2="9.88365" gradientUnits="userSpaceOnUse">
<stop stop-color="#F33726"/>
<stop offset="1" stop-color="#FD9B41"/>
</linearGradient>
<linearGradient id="paint10_linear_2276_20104" x1="261.218" y1="39.0621" x2="261.218" y2="52.7894" gradientUnits="userSpaceOnUse">
<stop stop-color="#F33726"/>
<stop offset="1" stop-color="#FD9B41"/>
</linearGradient>
<linearGradient id="paint11_linear_2276_20104" x1="261.218" y1="81.9673" x2="261.218" y2="95.6947" gradientUnits="userSpaceOnUse">
<stop stop-color="#F33726"/>
<stop offset="1" stop-color="#FD9B41"/>
</linearGradient>
<linearGradient id="paint12_linear_2276_20104" x1="218.312" y1="-3.8437" x2="218.312" y2="9.88365" gradientUnits="userSpaceOnUse">
<stop stop-color="#F33726"/>
<stop offset="1" stop-color="#FD9B41"/>
</linearGradient>
<linearGradient id="paint13_linear_2276_20104" x1="218.312" y1="39.0621" x2="218.312" y2="52.7894" gradientUnits="userSpaceOnUse">
<stop stop-color="#F33726"/>
<stop offset="1" stop-color="#FD9B41"/>
</linearGradient>
<linearGradient id="paint14_linear_2276_20104" x1="218.312" y1="81.9673" x2="218.312" y2="95.6947" gradientUnits="userSpaceOnUse">
<stop stop-color="#F33726"/>
<stop offset="1" stop-color="#FD9B41"/>
</linearGradient>
<linearGradient id="paint15_linear_2276_20104" x1="175.407" y1="-3.8437" x2="175.407" y2="9.88365" gradientUnits="userSpaceOnUse">
<stop stop-color="#F33726"/>
<stop offset="1" stop-color="#FD9B41"/>
</linearGradient>
<linearGradient id="paint16_linear_2276_20104" x1="175.407" y1="39.0621" x2="175.407" y2="52.7894" gradientUnits="userSpaceOnUse">
<stop stop-color="#F33726"/>
<stop offset="1" stop-color="#FD9B41"/>
</linearGradient>
<linearGradient id="paint17_linear_2276_20104" x1="175.407" y1="81.9673" x2="175.407" y2="95.6947" gradientUnits="userSpaceOnUse">
<stop stop-color="#F33726"/>
<stop offset="1" stop-color="#FD9B41"/>
</linearGradient>
<linearGradient id="paint18_linear_2276_20104" x1="132.501" y1="-3.8437" x2="132.501" y2="9.88365" gradientUnits="userSpaceOnUse">
<stop stop-color="#F33726"/>
<stop offset="1" stop-color="#FD9B41"/>
</linearGradient>
<linearGradient id="paint19_linear_2276_20104" x1="132.501" y1="39.0621" x2="132.501" y2="52.7894" gradientUnits="userSpaceOnUse">
<stop stop-color="#F33726"/>
<stop offset="1" stop-color="#FD9B41"/>
</linearGradient>
<linearGradient id="paint20_linear_2276_20104" x1="132.501" y1="81.9673" x2="132.501" y2="95.6947" gradientUnits="userSpaceOnUse">
<stop stop-color="#F33726"/>
<stop offset="1" stop-color="#FD9B41"/>
</linearGradient>
<linearGradient id="paint21_linear_2276_20104" x1="89.5961" y1="39.0621" x2="89.5961" y2="52.7894" gradientUnits="userSpaceOnUse">
<stop stop-color="#F33726"/>
<stop offset="1" stop-color="#FD9B41"/>
</linearGradient>
<linearGradient id="paint22_linear_2276_20104" x1="89.5961" y1="81.9673" x2="89.5961" y2="95.6947" gradientUnits="userSpaceOnUse">
<stop stop-color="#F33726"/>
<stop offset="1" stop-color="#FD9B41"/>
</linearGradient>
<linearGradient id="paint23_linear_2276_20104" x1="46.69" y1="-3.8437" x2="46.69" y2="9.88365" gradientUnits="userSpaceOnUse">
<stop stop-color="#F33726"/>
<stop offset="1" stop-color="#FD9B41"/>
</linearGradient>
<linearGradient id="paint24_linear_2276_20104" x1="46.69" y1="39.0621" x2="46.69" y2="52.7894" gradientUnits="userSpaceOnUse">
<stop stop-color="#F33726"/>
<stop offset="1" stop-color="#FD9B41"/>
</linearGradient>
<linearGradient id="paint25_linear_2276_20104" x1="46.69" y1="81.9673" x2="46.69" y2="95.6947" gradientUnits="userSpaceOnUse">
<stop stop-color="#F33726"/>
<stop offset="1" stop-color="#FD9B41"/>
</linearGradient>
<linearGradient id="paint26_linear_2276_20104" x1="3.78506" y1="-3.8437" x2="3.78506" y2="9.88365" gradientUnits="userSpaceOnUse">
<stop stop-color="#F33726"/>
<stop offset="1" stop-color="#FD9B41"/>
</linearGradient>
<linearGradient id="paint27_linear_2276_20104" x1="3.78506" y1="39.0621" x2="3.78506" y2="52.7894" gradientUnits="userSpaceOnUse">
<stop stop-color="#F33726"/>
<stop offset="1" stop-color="#FD9B41"/>
</linearGradient>
<linearGradient id="paint28_linear_2276_20104" x1="3.78506" y1="81.9673" x2="3.78506" y2="95.6947" gradientUnits="userSpaceOnUse">
<stop stop-color="#F33726"/>
<stop offset="1" stop-color="#FD9B41"/>
</linearGradient>
</defs>
</svg>
