<svg width="395" height="211" viewBox="0 0 395 211" fill="none" xmlns="http://www.w3.org/2000/svg">
<circle cx="4.26844" cy="206.87" r="3.45204" transform="rotate(-90 4.26844 206.87)" fill="#F57059"/>
<circle cx="4.26844" cy="156.24" r="3.45204" transform="rotate(-90 4.26844 156.24)" fill="#F57059"/>
<circle cx="4.26844" cy="105.61" r="3.45204" transform="rotate(-90 4.26844 105.61)" fill="#F57059"/>
<circle cx="4.26844" cy="54.9806" r="3.45204" transform="rotate(-90 4.26844 54.9806)" fill="#F57059"/>
<circle cx="4.26844" cy="4.3507" r="3.45204" transform="rotate(-90 4.26844 4.3507)" fill="#F57059"/>
<circle cx="54.8983" cy="206.87" r="3.45204" transform="rotate(-90 54.8983 206.87)" fill="#F57059"/>
<circle cx="54.8983" cy="156.24" r="3.45204" transform="rotate(-90 54.8983 156.24)" fill="#F57059"/>
<circle cx="54.8983" cy="105.61" r="3.45204" transform="rotate(-90 54.8983 105.61)" fill="#F57059"/>
<circle cx="54.8983" cy="54.9806" r="3.45204" transform="rotate(-90 54.8983 54.9806)" fill="#F57059"/>
<circle cx="54.8983" cy="4.3507" r="3.45204" transform="rotate(-90 54.8983 4.3507)" fill="#F57059"/>
<circle cx="105.528" cy="206.87" r="3.45204" transform="rotate(-90 105.528 206.87)" fill="#F57059"/>
<circle cx="105.528" cy="156.24" r="3.45204" transform="rotate(-90 105.528 156.24)" fill="#F57059"/>
<circle cx="105.528" cy="105.61" r="3.45204" transform="rotate(-90 105.528 105.61)" fill="#F57059"/>
<circle cx="105.528" cy="54.9806" r="3.45204" transform="rotate(-90 105.528 54.9806)" fill="#F57059"/>
<circle cx="105.528" cy="4.3507" r="3.45204" transform="rotate(-90 105.528 4.3507)" fill="#F57059"/>
<circle cx="156.158" cy="206.87" r="3.45204" transform="rotate(-90 156.158 206.87)" fill="#F57059"/>
<circle cx="156.158" cy="156.24" r="3.45204" transform="rotate(-90 156.158 156.24)" fill="#F57059"/>
<circle cx="156.158" cy="105.61" r="3.45204" transform="rotate(-90 156.158 105.61)" fill="#F57059"/>
<circle cx="156.158" cy="54.9806" r="3.45204" transform="rotate(-90 156.158 54.9806)" fill="#F57059"/>
<circle cx="156.158" cy="4.3507" r="3.45204" transform="rotate(-90 156.158 4.3507)" fill="#F57059"/>
<circle cx="206.788" cy="206.87" r="3.45204" transform="rotate(-90 206.788 206.87)" fill="#F57059"/>
<circle cx="206.788" cy="156.24" r="3.45204" transform="rotate(-90 206.788 156.24)" fill="#F57059"/>
<circle cx="206.788" cy="105.61" r="3.45204" transform="rotate(-90 206.788 105.61)" fill="#F57059"/>
<circle cx="206.788" cy="54.9806" r="3.45204" transform="rotate(-90 206.788 54.9806)" fill="#F57059"/>
<circle cx="206.788" cy="4.3507" r="3.45204" transform="rotate(-90 206.788 4.3507)" fill="#F57059"/>
<circle cx="257.418" cy="206.87" r="3.45204" transform="rotate(-90 257.418 206.87)" fill="#F57059"/>
<circle cx="257.418" cy="156.24" r="3.45204" transform="rotate(-90 257.418 156.24)" fill="#F57059"/>
<circle cx="257.418" cy="105.61" r="3.45204" transform="rotate(-90 257.418 105.61)" fill="#F57059"/>
<circle cx="257.418" cy="54.9806" r="3.45204" transform="rotate(-90 257.418 54.9806)" fill="#F57059"/>
<circle cx="257.418" cy="4.3507" r="3.45204" transform="rotate(-90 257.418 4.3507)" fill="#F57059"/>
<circle cx="308.047" cy="206.87" r="3.45204" transform="rotate(-90 308.047 206.87)" fill="#F57059"/>
<circle cx="308.047" cy="156.24" r="3.45204" transform="rotate(-90 308.047 156.24)" fill="#F57059"/>
<circle cx="308.047" cy="105.61" r="3.45204" transform="rotate(-90 308.047 105.61)" fill="#F57059"/>
<circle cx="308.047" cy="54.9806" r="3.45204" transform="rotate(-90 308.047 54.9806)" fill="#F57059"/>
<circle cx="308.047" cy="4.3507" r="3.45204" transform="rotate(-90 308.047 4.3507)" fill="#F57059"/>
<circle cx="358.677" cy="206.87" r="3.45204" transform="rotate(-90 358.677 206.87)" fill="#F57059"/>
<circle cx="358.677" cy="156.24" r="3.45204" transform="rotate(-90 358.677 156.24)" fill="#F57059"/>
<circle cx="358.677" cy="105.61" r="3.45204" transform="rotate(-90 358.677 105.61)" fill="#F57059"/>
<circle cx="358.677" cy="54.9806" r="3.45204" transform="rotate(-90 358.677 54.9806)" fill="#F57059"/>
<circle cx="358.677" cy="4.3507" r="3.45204" transform="rotate(-90 358.677 4.3507)" fill="#F57059"/>
</svg>
