<svg width="211" height="464" viewBox="0 0 211 464" fill="none" xmlns="http://www.w3.org/2000/svg">
<circle cx="206.804" cy="459.654" r="3.45204" transform="rotate(-180 206.804 459.654)" fill="#F57059"/>
<circle cx="156.174" cy="459.654" r="3.45204" transform="rotate(-180 156.174 459.654)" fill="#F57059"/>
<circle cx="105.544" cy="459.654" r="3.45204" transform="rotate(-180 105.544 459.654)" fill="#F57059"/>
<circle cx="54.9143" cy="459.654" r="3.45204" transform="rotate(-180 54.9143 459.654)" fill="#F57059"/>
<circle cx="4.28441" cy="459.654" r="3.45204" transform="rotate(-180 4.28441 459.654)" fill="#F57059"/>
<circle cx="206.804" cy="409.024" r="3.45204" transform="rotate(-180 206.804 409.024)" fill="#F57059"/>
<circle cx="156.174" cy="409.024" r="3.45204" transform="rotate(-180 156.174 409.024)" fill="#F57059"/>
<circle cx="105.544" cy="409.024" r="3.45204" transform="rotate(-180 105.544 409.024)" fill="#F57059"/>
<circle cx="54.9143" cy="409.024" r="3.45204" transform="rotate(-180 54.9143 409.024)" fill="#F57059"/>
<circle cx="4.28441" cy="409.024" r="3.45204" transform="rotate(-180 4.28441 409.024)" fill="#F57059"/>
<circle cx="206.804" cy="358.394" r="3.45204" transform="rotate(-180 206.804 358.394)" fill="#F57059"/>
<circle cx="156.174" cy="358.394" r="3.45204" transform="rotate(-180 156.174 358.394)" fill="#F57059"/>
<circle cx="105.544" cy="358.394" r="3.45204" transform="rotate(-180 105.544 358.394)" fill="#F57059"/>
<circle cx="54.9143" cy="358.394" r="3.45204" transform="rotate(-180 54.9143 358.394)" fill="#F57059"/>
<circle cx="4.28441" cy="358.394" r="3.45204" transform="rotate(-180 4.28441 358.394)" fill="#F57059"/>
<circle cx="206.804" cy="307.764" r="3.45204" transform="rotate(-180 206.804 307.764)" fill="#F57059"/>
<circle cx="156.174" cy="307.764" r="3.45204" transform="rotate(-180 156.174 307.764)" fill="#F57059"/>
<circle cx="105.544" cy="307.764" r="3.45204" transform="rotate(-180 105.544 307.764)" fill="#F57059"/>
<circle cx="54.9143" cy="307.764" r="3.45204" transform="rotate(-180 54.9143 307.764)" fill="#F57059"/>
<circle cx="4.28441" cy="307.764" r="3.45204" transform="rotate(-180 4.28441 307.764)" fill="#F57059"/>
<circle cx="206.804" cy="257.134" r="3.45204" transform="rotate(-180 206.804 257.134)" fill="#F57059"/>
<circle cx="156.174" cy="257.135" r="3.45204" transform="rotate(-180 156.174 257.135)" fill="#F57059"/>
<circle cx="105.544" cy="257.135" r="3.45204" transform="rotate(-180 105.544 257.135)" fill="#F57059"/>
<circle cx="54.9143" cy="257.135" r="3.45204" transform="rotate(-180 54.9143 257.135)" fill="#F57059"/>
<circle cx="4.28441" cy="257.134" r="3.45204" transform="rotate(-180 4.28441 257.134)" fill="#F57059"/>
<circle cx="206.804" cy="206.505" r="3.45204" transform="rotate(-180 206.804 206.505)" fill="#F57059"/>
<circle cx="156.174" cy="206.505" r="3.45204" transform="rotate(-180 156.174 206.505)" fill="#F57059"/>
<circle cx="105.544" cy="206.505" r="3.45204" transform="rotate(-180 105.544 206.505)" fill="#F57059"/>
<circle cx="54.9143" cy="206.505" r="3.45204" transform="rotate(-180 54.9143 206.505)" fill="#F57059"/>
<circle cx="4.28441" cy="206.505" r="3.45204" transform="rotate(-180 4.28441 206.505)" fill="#F57059"/>
<circle cx="206.804" cy="155.875" r="3.45204" transform="rotate(-180 206.804 155.875)" fill="#F57059"/>
<circle cx="156.174" cy="155.875" r="3.45204" transform="rotate(-180 156.174 155.875)" fill="#F57059"/>
<circle cx="105.544" cy="155.875" r="3.45204" transform="rotate(-180 105.544 155.875)" fill="#F57059"/>
<circle cx="54.9143" cy="155.875" r="3.45204" transform="rotate(-180 54.9143 155.875)" fill="#F57059"/>
<circle cx="4.28441" cy="155.875" r="3.45204" transform="rotate(-180 4.28441 155.875)" fill="#F57059"/>
<circle cx="206.804" cy="105.245" r="3.45204" transform="rotate(-180 206.804 105.245)" fill="#F57059"/>
<circle cx="156.174" cy="105.245" r="3.45204" transform="rotate(-180 156.174 105.245)" fill="#F57059"/>
<circle cx="105.544" cy="105.245" r="3.45204" transform="rotate(-180 105.544 105.245)" fill="#F57059"/>
<circle cx="54.9143" cy="105.245" r="3.45204" transform="rotate(-180 54.9143 105.245)" fill="#F57059"/>
<circle cx="4.28441" cy="105.245" r="3.45204" transform="rotate(-180 4.28441 105.245)" fill="#F57059"/>
<circle cx="206.804" cy="54.615" r="3.45204" transform="rotate(-180 206.804 54.615)" fill="#F57059"/>
<circle cx="156.174" cy="54.615" r="3.45204" transform="rotate(-180 156.174 54.615)" fill="#F57059"/>
<circle cx="105.544" cy="54.615" r="3.45204" transform="rotate(-180 105.544 54.615)" fill="#F57059"/>
<circle cx="54.9143" cy="54.615" r="3.45204" transform="rotate(-180 54.9143 54.615)" fill="#F57059"/>
<circle cx="4.28441" cy="54.615" r="3.45204" transform="rotate(-180 4.28441 54.615)" fill="#F57059"/>
<circle cx="206.804" cy="3.9851" r="3.45204" transform="rotate(-180 206.804 3.9851)" fill="#F57059"/>
<circle cx="156.174" cy="3.9851" r="3.45204" transform="rotate(-180 156.174 3.9851)" fill="#F57059"/>
<circle cx="105.544" cy="3.9851" r="3.45204" transform="rotate(-180 105.544 3.9851)" fill="#F57059"/>
<circle cx="54.9143" cy="3.9851" r="3.45204" transform="rotate(-180 54.9143 3.9851)" fill="#F57059"/>
<circle cx="4.28441" cy="3.9851" r="3.45204" transform="rotate(-180 4.28441 3.9851)" fill="#F57059"/>
</svg>
