<svg width="131" height="49" viewBox="0 0 131 49" fill="none" xmlns="http://www.w3.org/2000/svg">
<path fill-rule="evenodd" clip-rule="evenodd" d="M0.210485 11.8999V0H49.0349V11.8999H32.3977V18.336H16.8476V11.8999H0.210485ZM0 20.9149V24.7833H32.3977V20.9149H0ZM16.8476 33.8096V27.3623H32.3977V33.8096H16.8476ZM16.7783 36.3886V40.9018H16.8476H32.3977H36.7832H49.0443V36.3886H16.7783ZM55.6992 36.3886V40.9018H71.202V36.3886H55.6992ZM74.1383 33.8096L71.202 26.4915V33.8096H55.6992V0H73.7072L85.0506 27.2943L96.3941 0H114.402V33.8096H98.8992V26.4915L95.963 33.8096H74.1383ZM75.1727 36.3886L76.9835 40.9018H93.1178L94.9285 36.3886H75.1727ZM98.8992 36.3886V40.9018H131V36.3886H98.8992ZM16.8476 43.4807H32.3977V48.6386H16.8476V43.4807ZM55.6992 43.4807V48.6386H71.202V43.4807H55.6992ZM78.0186 43.4807L80.0875 48.6386H90.0131L92.0827 43.4807H78.0186ZM98.8992 43.4807V48.6386H114.402V43.4807H98.8992Z" fill="url(#paint0_linear_2276_19340)"/>
<defs>
<linearGradient id="paint0_linear_2276_19340" x1="84.7551" y1="-31.9535" x2="84.7551" y2="82.1649" gradientUnits="userSpaceOnUse">
<stop stop-color="#F33726"/>
<stop offset="1" stop-color="#FD9B41"/>
</linearGradient>
</defs>
</svg>
