<svg width="96" height="99" viewBox="0 0 96 99" fill="none" xmlns="http://www.w3.org/2000/svg">
<path d="M34.9091 0.818541C30.3248 0.818541 25.7854 1.72149 21.55 3.47584C17.3147 5.23018 13.4663 7.80157 10.2247 11.0432C6.98308 14.2848 4.4117 18.1331 2.65735 22.3685C0.903002 26.6039 5.51321e-05 31.1433 5.49317e-05 35.7276L34.9091 35.7276L34.9091 0.818541Z" fill="url(#paint0_linear_2276_19662)"/>
<path d="M61.0909 29.1818C56.5066 29.1818 51.9671 30.0848 47.7318 31.8391C43.4964 33.5935 39.6481 36.1648 36.4065 39.4065C33.1648 42.6481 30.5935 46.4964 28.8391 50.7318C27.0848 54.9671 26.1818 59.5066 26.1818 64.0909L61.0909 64.0909L61.0909 29.1818Z" fill="url(#paint1_linear_2276_19662)"/>
<defs>
<linearGradient id="paint0_linear_2276_19662" x1="115.686" y1="25.4654" x2="-48.1252" y2="25.4654" gradientUnits="userSpaceOnUse">
<stop stop-color="#F33726"/>
<stop offset="1" stop-color="#FD9B41"/>
</linearGradient>
<linearGradient id="paint1_linear_2276_19662" x1="141.868" y1="53.8287" x2="-21.9435" y2="53.8287" gradientUnits="userSpaceOnUse">
<stop stop-color="#F33726"/>
<stop offset="1" stop-color="#FD9B41"/>
</linearGradient>
</defs>
</svg>
