<svg width="140" height="439" viewBox="0 0 140 439" fill="none" xmlns="http://www.w3.org/2000/svg">
<circle cx="34.712" cy="283.231" r="3.45204" transform="rotate(-180 34.712 283.231)" fill="#F57059"/>
<circle cx="85.3409" cy="232.601" r="3.45204" transform="rotate(-180 85.3409 232.601)" fill="#F57059"/>
<circle cx="34.7121" cy="232.601" r="3.45204" transform="rotate(-180 34.7121 232.601)" fill="#F57059"/>
<circle cx="135.972" cy="181.971" r="3.45204" transform="rotate(-180 135.972 181.971)" fill="#F57059"/>
<circle cx="85.3409" cy="181.971" r="3.45204" transform="rotate(-180 85.3409 181.971)" fill="#F57059"/>
<circle cx="34.712" cy="181.971" r="3.45204" transform="rotate(-180 34.712 181.971)" fill="#F57059"/>
<circle cx="135.972" cy="131.341" r="3.45204" transform="rotate(-180 135.972 131.341)" fill="#F57059"/>
<circle cx="85.3429" cy="131.341" r="3.45204" transform="rotate(-180 85.3429 131.341)" fill="#F57059"/>
<circle cx="34.7121" cy="131.341" r="3.45204" transform="rotate(-180 34.7121 131.341)" fill="#F57059"/>
<circle cx="135.972" cy="80.7115" r="3.45204" transform="rotate(-180 135.972 80.7115)" fill="#F57059"/>
<circle cx="85.3429" cy="80.7115" r="3.45204" transform="rotate(-180 85.3429 80.7115)" fill="#F57059"/>
<circle cx="34.7121" cy="80.7115" r="3.45204" transform="rotate(-180 34.7121 80.7115)" fill="#F57059"/>
</svg>
