<svg width="195" height="236" viewBox="0 0 195 236" fill="none" xmlns="http://www.w3.org/2000/svg">
<circle cx="190.804" cy="206.505" r="3.45204" transform="rotate(-180 190.804 206.505)" fill="#F57059"/>
<circle cx="140.174" cy="206.505" r="3.45204" transform="rotate(-180 140.174 206.505)" fill="#F57059"/>
<circle cx="89.5441" cy="206.505" r="3.45204" transform="rotate(-180 89.5441 206.505)" fill="#F57059"/>
<circle cx="38.9143" cy="206.505" r="3.45204" transform="rotate(-180 38.9143 206.505)" fill="#F57059"/>
<circle cx="190.804" cy="155.875" r="3.45204" transform="rotate(-180 190.804 155.875)" fill="#F57059"/>
<circle cx="140.174" cy="155.875" r="3.45204" transform="rotate(-180 140.174 155.875)" fill="#F57059"/>
<circle cx="89.5442" cy="155.875" r="3.45204" transform="rotate(-180 89.5442 155.875)" fill="#F57059"/>
<circle cx="38.9143" cy="155.875" r="3.45204" transform="rotate(-180 38.9143 155.875)" fill="#F57059"/>
<circle cx="190.804" cy="105.245" r="3.45204" transform="rotate(-180 190.804 105.245)" fill="#F57059"/>
<circle cx="140.174" cy="105.245" r="3.45204" transform="rotate(-180 140.174 105.245)" fill="#F57059"/>
<circle cx="89.5442" cy="105.245" r="3.45204" transform="rotate(-180 89.5442 105.245)" fill="#F57059"/>
<circle cx="38.9143" cy="105.245" r="3.45204" transform="rotate(-180 38.9143 105.245)" fill="#F57059"/>
<circle cx="190.804" cy="54.6151" r="3.45204" transform="rotate(-180 190.804 54.6151)" fill="#F57059"/>
<circle cx="140.174" cy="54.6151" r="3.45204" transform="rotate(-180 140.174 54.6151)" fill="#F57059"/>
<circle cx="89.5441" cy="54.6151" r="3.45204" transform="rotate(-180 89.5441 54.6151)" fill="#F57059"/>
<circle cx="38.9143" cy="54.6151" r="3.45204" transform="rotate(-180 38.9143 54.6151)" fill="#F57059"/>
<circle cx="190.804" cy="3.98522" r="3.45204" transform="rotate(-180 190.804 3.98522)" fill="#F57059"/>
<circle cx="140.174" cy="3.98522" r="3.45204" transform="rotate(-180 140.174 3.98522)" fill="#F57059"/>
<circle cx="89.5442" cy="3.98522" r="3.45204" transform="rotate(-180 89.5442 3.98522)" fill="#F57059"/>
<circle cx="38.9143" cy="3.98522" r="3.45204" transform="rotate(-180 38.9143 3.98522)" fill="#F57059"/>
</svg>
